/* XPM */
static char * joytan_xpm[] = {
"32 32 324 2",
"  	c None",
". 	c #FFE25D",
"+ 	c #FFE25C",
"@ 	c #FFE35F",
"# 	c #FFE464",
"$ 	c #FFE460",
"% 	c #FFE360",
"& 	c #FFE258",
"* 	c #FFE159",
"= 	c #FFE25A",
"- 	c #FFE25B",
"; 	c #FFE35D",
"> 	c #FFE361",
", 	c #FFE363",
"' 	c #FFE462",
") 	c #FFE057",
"! 	c #FFE156",
"~ 	c #FFE257",
"{ 	c #FFE35C",
"] 	c #FFE56C",
"^ 	c #FFE778",
"/ 	c #FFE87F",
"( 	c #FFE777",
"_ 	c #FFE56B",
": 	c #FFE45F",
"< 	c #FFE155",
"[ 	c #FFE259",
"} 	c #FFE362",
"| 	c #FFE673",
"1 	c #FFEA88",
"2 	c #FFED98",
"3 	c #FFEEA1",
"4 	c #FFEEA0",
"5 	c #FFEC95",
"6 	c #FFE984",
"7 	c #FFE56F",
"8 	c #FFE25E",
"9 	c #FDDE50",
"0 	c #FEE053",
"a 	c #FFE35E",
"b 	c #FFEA89",
"c 	c #FFEEA2",
"d 	c #FFF2B6",
"e 	c #FFF4C2",
"f 	c #FFF3BF",
"g 	c #FFF1AF",
"h 	c #FFED99",
"i 	c #FFE880",
"j 	c #FFE467",
"k 	c #F9DA46",
"l 	c #FDDF4F",
"m 	c #FFE154",
"n 	c #F3D657",
"o 	c #E9CD58",
"p 	c #F0D872",
"q 	c #FBE895",
"r 	c #FFF2B4",
"s 	c #FFF6CF",
"t 	c #FFF9E1",
"u 	c #FDF6D8",
"v 	c #FEF3C1",
"w 	c #FEEFA6",
"x 	c #F3D134",
"y 	c #F7D740",
"z 	c #FEDF50",
"A 	c #C1A140",
"B 	c #825E27",
"C 	c #9C7C42",
"D 	c #D8C381",
"E 	c #FFF3BA",
"F 	c #FFF8D6",
"G 	c #E4DCCC",
"H 	c #BCAB98",
"I 	c #CAB892",
"J 	c #E6D392",
"K 	c #FEEA89",
"L 	c #F0CF2F",
"M 	c #B5953B",
"N 	c #5C3614",
"O 	c #765429",
"P 	c #C8B070",
"Q 	c #FFF5C5",
"R 	c #CFBFA0",
"S 	c #795B46",
"T 	c #896C4D",
"U 	c #C4AB6C",
"V 	c #FEE87F",
"W 	c #FFE466",
"X 	c #E9C51F",
"Y 	c #EECC29",
"Z 	c #F6D63E",
"` 	c #AD8B36",
" .	c #421A07",
"..	c #5A3516",
"+.	c #BDA25D",
"@.	c #FFED9A",
"#.	c #FFF0AA",
"$.	c #BAA375",
"%.	c #4A2414",
"&.	c #57331D",
"*.	c #A88A4B",
"=.	c #FEE66F",
"-.	c #FFE157",
";.	c #E6C217",
">.	c #EDCA26",
",.	c #F5D43A",
"'.	c #FCDD4C",
").	c #A88734",
"!.	c #350C00",
"~.	c #411907",
"{.	c #B29448",
"].	c #FFEA8B",
"^.	c #AB8F54",
"/.	c #330B00",
"(.	c #360E02",
"_.	c #947231",
":.	c #E4BE0E",
"<.	c #EBC820",
"[.	c #FADB47",
"}.	c #FEE052",
"|.	c #A17F30",
"1.	c #330A00",
"2.	c #340B00",
"3.	c #A98838",
"4.	c #FFE465",
"5.	c #9E7E3B",
"6.	c #99762E",
"7.	c #FDE053",
"8.	c #DFBB0B",
"9.	c #E1BB07",
"0.	c #D2AD16",
"a.	c #D0AD26",
"b.	c #F7D73F",
"c.	c #FDDE4E",
"d.	c #FFE153",
"e.	c #FFE256",
"f.	c #95712A",
"g.	c #AF8E38",
"h.	c #FEE35D",
"i.	c #8F6C2A",
"j.	c #A78533",
"k.	c #FBDC4D",
"l.	c #E0B906",
"m.	c #DFB802",
"n.	c #805805",
"o.	c #6A430D",
"p.	c #D1AF2D",
"q.	c #FEE051",
"r.	c #A88532",
"s.	c #5D3612",
"t.	c #57300F",
"u.	c #C1A13F",
"v.	c #FBDF59",
"w.	c #805C22",
"x.	c #360D01",
"y.	c #360E01",
"z.	c #B6953A",
"A.	c #FFE053",
"B.	c #FCDE4D",
"C.	c #F6D73D",
"D.	c #DEB800",
"E.	c #AD8500",
"F.	c #3F1600",
"G.	c #714A10",
"H.	c #D2B132",
"I.	c #FBDC4A",
"J.	c #F7DA53",
"K.	c #F2D452",
"L.	c #ECCD4F",
"M.	c #FCDF57",
"N.	c #D0B044",
"O.	c #B8973A",
"P.	c #AD8B35",
"Q.	c #E3C54C",
"R.	c #FBDD54",
"S.	c #FDDE4D",
"T.	c #F7D840",
"U.	c #F1CF30",
"V.	c #EDCB2F",
"W.	c #E0BA06",
"X.	c #A67E00",
"Y.	c #3C1300",
"Z.	c #6C4510",
"`.	c #C9A731",
" +	c #F7D952",
".+	c #C2A13B",
"++	c #D7B742",
"@+	c #F1D030",
"#+	c #EBC821",
"$+	c #E9C729",
"%+	c #DFB801",
"&+	c #DFB800",
"*+	c #956D00",
"=+	c #431A00",
"-+	c #633C0E",
";+	c #BC992C",
">+	c #C7A63C",
",+	c #6C4617",
"'+	c #724C17",
")+	c #D3B130",
"!+	c #F0CE2E",
"~+	c #EBC71F",
"{+	c #E5BF10",
"]+	c #E3BF13",
"^+	c #9D7500",
"/+	c #482000",
"(+	c #4C2407",
"_+	c #9F7A21",
":+	c #EBCB3D",
"<+	c #FBDC49",
"[+	c #ECCC48",
"}+	c #805B1D",
"|+	c #4B2308",
"1+	c #6D460D",
"2+	c #DCB923",
"3+	c #B38E16",
"4+	c #BC950B",
"5+	c #E0BA05",
"6+	c #DEB703",
"7+	c #A57D00",
"8+	c #593100",
"9+	c #6E4710",
"0+	c #B38F26",
"a+	c #EFCF3B",
"b+	c #F8D942",
"c+	c #FBDD4B",
"d+	c #FADA46",
"e+	c #F8D841",
"f+	c #9D7922",
"g+	c #3C1302",
"h+	c #380F00",
"i+	c #9F780F",
"j+	c #CEA913",
"k+	c #542C03",
"l+	c #522A00",
"m+	c #AD8501",
"n+	c #BA9200",
"o+	c #6F4700",
"p+	c #3A1202",
"q+	c #724C10",
"r+	c #AE8A20",
"s+	c #E2BF2E",
"t+	c #F2D133",
"u+	c #F3D235",
"v+	c #F3D234",
"w+	c #F1CF2F",
"x+	c #D5B225",
"y+	c #5C3407",
"z+	c #6C4403",
"A+	c #D9B30A",
"B+	c #8C6504",
"C+	c #3A1100",
"D+	c #A37B01",
"E+	c #D4AD00",
"F+	c #936B00",
"G+	c #552C00",
"H+	c #380F01",
"I+	c #5B3308",
"J+	c #8A6411",
"K+	c #B38F17",
"L+	c #D3AF1B",
"M+	c #E2BE1B",
"N+	c #E7C318",
"O+	c #E6C114",
"P+	c #AD8708",
"Q+	c #744C01",
"R+	c #AC8500",
"S+	c #B99100",
"T+	c #4C2400",
"U+	c #6D4500",
"V+	c #D5AE03",
"W+	c #DEB804",
"X+	c #C59D00",
"Y+	c #8A6200",
"Z+	c #532A00",
"`+	c #381000",
" @	c #4B2202",
".@	c #623A04",
"+@	c #7A5204",
"@@	c #8C6502",
"#@	c #9C7501",
"$@	c #997100",
"%@	c #CBA300",
"&@	c #805800",
"*@	c #A98101",
"=@	c #DEB700",
"-@	c #C8A100",
";@	c #653D00",
">@	c #401700",
",@	c #5D3500",
"'@	c #C69F00",
")@	c #5E3600",
"!@	c #7C5400",
"~@	c #DDB705",
"{@	c #D7B000",
"]@	c #B89100",
"^@	c #906800",
"/@	c #6C4400",
"(@	c #4D2400",
"_@	c #360D00",
":@	c #9B7300",
"<@	c #CDA502",
"[@	c #DEB801",
"}@	c #DBB400",
"|@	c #CBA400",
"1@	c #B79000",
"2@	c #A37C00",
"3@	c #916900",
"4@	c #987000",
"5@	c #D8B000",
"6@	c #DFB902",
"7@	c #E0BA0A",
"8@	c #DEB702",
"9@	c #DEBA07",
"0@	c #E0B903",
"a@	c #E0B802",
"b@	c #DFB908",
"c@	c #DFB701",
"d@	c #DFB803",
"e@	c #DBB503",
"f@	c #DCB501",
"g@	c #DCB600",
"h@	c #DBB500",
"i@	c #DDB600",
"                                                                ",
"                        . + @ # . $ %                           ",
"                  & * * = - + ; > , , ' %                       ",
"              ) ! ~ & = - { > ] ^ / / ( _ > :                   ",
"            < < ! & [ - { } | 1 2 3 4 5 6 7 % 8                 ",
"          9 0 < ~ & = - a 7 b c d e f g h i j ; - =             ",
"        k l m ! ~ [ = n o p q r s t u v w b ] ; - -             ",
"      x y z m ! ~ [ - A B C D E F G H I J K ] ; - = [           ",
"      L y z m ! ~ [ = M N O P g Q R S T U V W { - [ & -         ",
"    X Y Z l m ! ~ [ = `  ...+.@.#.$.%.&.*.=.@ + = [ ~ -.        ",
"    ;.>.,.'.0 < ~ & [ ).!.~.{./ ].^./.(._.> { - [ & ! < <       ",
"    :.<.x [.}.m ! ~ [ |.1.2.3.4.] 5.1.1.6.+ - = & ~ ! m 7.      ",
"  8.9.0.a.b.c.d.< e.& f.1.2.g.+ h.i.1.1.j.= [ & ~ ! m 0 k.      ",
"  l.m.n.o.p.[.q.m < ~ r.s.t.u.= v.w.x.y.z.[ & ~ ! < A.B.C.      ",
"  D.E.F.1.G.H.I.}.m < J.K.L.M.[ [ N.O.P.Q.~ -.R.m 0 S.T.U.V.    ",
"  W.X.Y.1.1.Z.`.I.q.m < ! ! ~ ~ ~ ~ ~ ~ ! !  +.+++'.b.@+#+$+    ",
"  %+&+*+=+1.1.-+;+[.l 0 m m < < ! ! < < m m >+,+'+)+!+~+{+]+    ",
"  m.&+&+^+/+1.1.(+_+:+<+c.q.}.0 0 0 0 }.q.[+}+|+1+2+3+4+5+      ",
"  6+&+&+&+7+8+1.1.1.9+0+a+b+[.<+c+I.<+d+e+f+g+h+i+j+k+l+m+      ",
"    &+&+&+&+n+o+1.1.1.p+q+r+s+t+u+v+t+w+x+y+1.z+A+B+1.C+D+      ",
"    m.&+&+&+&+E+F+G+1.1.1.H+I+J+K+L+M+N+O+P+Q+R+S+T+1.U+V+      ",
"    W+&+&+&+&+&+&+X+Y+Z+1.1.1.1.`+ @.@+@@@#@$@%@&@1.F.*@        ",
"      =@&+&+&+&+&+&+&+-@*+;@>@1.1.1.1.1.1.2.,@'@7+)@!@~@        ",
"      6+&+&+&+&+&+&+&+&+&+{@]@^@/@(@Y.!.1._@:@&+&+-@<@          ",
"        [@&+&+&+&+&+&+&+&+&+&+&+}@|@1@2@3@4@5@&+&+&+            ",
"          6@&+&+&+&+&+&+&+&+&+&+&+&+&+&+&+&+&+&+&+7@            ",
"            8@&+&+&+&+&+&+&+&+&+&+&+&+&+&+&+&+m.9@              ",
"              0@%+&+&+&+&+&+&+&+&+&+&+&+&+&+a@                  ",
"                  b@c@&+&+&+&+&+&+&+&+D.8@d@                    ",
"                      e@f@g@h@}@h@i@f@                          ",
"                                                                ",
"                                                                "};
